PathFileType   4   (X/Y/Z)
DataRate  CameraRate  NumFrames  NumMarkers  Units  OrigDataRate  OrigDataStartFrame  OrigNumFrames  
  120.0      120.0        4         37         mm      120.0          1        105
Frame#      Time                    midhip                           hip_r                           hip_l                          knee_r                          knee_l                         ankle_r                         ankle_l                         midasis                          asis_r                          asis_l                          psis_r                          psis_l                    epicondLat_r                    epicondLat_l                    epicondMed_r                    epicondMed_l                  malleolusLat_r                  malleolusLat_l                 malleolusMedv_r                 malleolusMedv_l                    sternalnotch                  xyphoidprocess                            neck                           toe_r                           toe_l                     thighwand_r                     thighwand_l                     upperleg1_r                     upperleg1_l                     upperleg2_r                     upperleg2_l                     shankwand_r                     shankwand_l                     lowerleg1_r                     lowerleg1_l                   subclavicle_r                   subclavicle_l            
              X1          Y1          Z1          X2          Y2          Z2          X3          Y3          Z3          X4          Y4          Z4          X5          Y5          Z5          X6          Y6          Z6          X7          Y7          Z7          X8          Y8          Z8          X9          Y9          Z9          X10          Y10          Z10          X11          Y11          Z11          X12          Y12          Z12          X13          Y13          Z13          X14          Y14          Z14          X15          Y15          Z15          X16          Y16          Z16          X17          Y17          Z17          X18          Y18          Z18          X19          Y19          Z19          X20          Y20          Z20          X21          Y21          Z21          X22          Y22          Z22          X23          Y23          Z23          X24          Y24          Z24          X25          Y25          Z25          X26          Y26          Z26          X27          Y27          Z27          X28          Y28          Z28          X29          Y29          Z29          X30          Y30          Z30          X31          Y31          Z31          X32          Y32          Z32          X33          Y33          Z33          X34          Y34          Z34          X35          Y35          Z35          X36          Y36          Z36          X37          Y37          Z37          

	1	0.12500	1353.343	750.494	-287.842	1346.334	744.616	-231.148	1360.353	756.373	-344.536	1278.851	399.934	-208.001	1441.207	419.269	-328.778	1025.446	150.109	-224.019	1474.881	65.982	-323.472	1387.528	822.493	-276.575	1389.171	817.309	-164.934	1385.886	827.677	-388.216	1212.214	849.749	-245.214	1209.827	848.931	-299.309	1286.470	394.462	-148.614	1457.898	415.543	-388.157	1304.173	391.178	-271.645	1444.110	417.159	-271.371	1018.652	154.662	-187.421	1470.265	64.815	-359.660	1024.156	145.107	-257.196	1468.615	65.662	-290.315	1377.320	1174.061	-302.739	1386.432	1072.362	-306.827	1268.592	1243.952	-292.963	1058.418	68.891	-220.111	1566.331	47.687	-322.278	1438.592	526.937	-171.536	1511.842	591.448	-398.605	1384.611	569.520	-145.230	1467.827	627.877	-338.351	1368.740	512.357	-148.767	1477.972	571.211	-328.687	1192.425	144.866	-184.835	1467.493	165.347	-450.566	1126.965	189.827	-207.673	1463.701	157.909	-370.814	1380.581	1173.520	-246.702	1379.772	1175.086	-352.654
	2	0.13333	1363.095	751.799	-288.881	1356.227	745.894	-232.173	1369.963	757.704	-345.590	1297.645	399.322	-207.396	1447.184	420.315	-330.114	1040.743	153.982	-223.860	1475.152	65.851	-323.706	1397.151	823.870	-277.724	1399.068	818.655	-166.109	1395.233	829.086	-389.339	1221.985	850.655	-245.296	1219.500	849.893	-299.247	1303.941	394.480	-148.044	1464.028	415.726	-389.338	1323.476	391.584	-272.194	1450.158	417.722	-273.794	1033.495	159.137	-187.430	1470.560	64.667	-359.896	1039.685	148.112	-256.891	1468.512	65.913	-290.583	1386.675	1175.370	-303.649	1395.604	1073.649	-307.562	1278.254	1245.370	-293.847	1069.304	71.059	-219.785	1566.439	47.413	-322.505	1453.559	529.770	-170.719	1519.964	591.414	-399.998	1398.873	571.194	-144.597	1476.648	628.352	-340.090	1384.472	513.826	-148.457	1486.054	571.474	-330.601	1206.699	146.536	-182.219	1469.596	164.794	-451.105	1142.399	191.778	-206.614	1465.227	158.092	-371.429	1390.356	1174.961	-247.849	1388.754	1176.270	-353.374
	3	0.14167	1372.679	753.059	-289.792	1365.906	747.162	-233.071	1379.452	758.956	-346.514	1314.467	400.024	-206.972	1452.093	420.438	-331.518	1056.947	157.490	-223.781	1475.387	65.763	-323.943	1406.614	825.228	-278.771	1408.703	820.044	-167.203	1404.525	830.411	-390.338	1231.515	851.617	-245.489	1229.129	850.901	-299.277	1321.487	394.772	-147.619	1469.618	415.846	-390.525	1341.438	393.726	-274.760	1455.080	419.135	-274.189	1049.303	163.179	-187.512	1470.733	64.554	-360.125	1055.720	150.187	-256.541	1468.660	66.463	-290.833	1395.981	1176.573	-304.596	1404.720	1074.818	-308.052	1287.904	1246.691	-294.584	1082.031	73.498	-219.128	1566.480	47.229	-322.743	1468.270	532.878	-169.814	1527.685	591.079	-401.609	1412.360	572.719	-143.911	1485.355	628.600	-342.459	1398.921	515.367	-148.671	1493.739	571.701	-332.425	1221.863	148.297	-179.969	1471.247	164.259	-451.595	1158.118	193.849	-206.306	1466.780	158.042	-372.461	1399.899	1176.428	-248.804	1397.850	1177.226	-354.339
	4	0.15000	1382.076	754.289	-290.613	1375.350	748.427	-233.883	1388.802	760.152	-347.344	1329.790	400.586	-206.712	1457.590	420.762	-332.783	1073.878	160.641	-223.783	1475.605	65.695	-324.155	1415.946	826.570	-279.736	1418.105	821.473	-168.228	1413.788	831.668	-391.244	1240.855	852.641	-245.792	1238.654	851.974	-299.468	1339.074	395.383	-147.318	1474.746	415.905	-391.628	1357.272	394.119	-273.686	1461.393	419.723	-275.840	1065.900	166.775	-187.659	1470.822	64.465	-360.320	1072.538	152.343	-256.349	1468.847	66.871	-291.034	1405.213	1177.797	-305.310	1413.752	1076.010	-308.292	1297.345	1248.135	-295.511	1096.651	76.138	-218.065	1566.482	47.089	-322.959	1482.724	536.270	-168.920	1535.028	590.458	-403.321	1425.382	574.649	-143.463	1493.678	628.575	-344.655	1412.615	517.134	-147.967	1501.449	571.866	-334.582	1237.863	150.146	-178.141	1472.539	163.754	-452.007	1174.718	196.342	-206.282	1468.116	157.781	-373.351	1409.217	1177.912	-249.495	1407.007	1178.210	-355.087
